<?xml version="1.0" standalone="no"?>
<!DOCTYPE svg PUBLIC "-//W3C//DTD SVG 20010904//EN"
 "http://www.w3.org/TR/2001/REC-SVG-20010904/DTD/svg10.dtd">
<svg version="1.0" xmlns="http://www.w3.org/2000/svg"
 width="700.000000pt" height="700.000000pt" viewBox="0 0 700.000000 700.000000"
 preserveAspectRatio="xMidYMid meet">
<metadata>
Created by potrace 1.14, written by Peter Selinger 2001-2017
</metadata>
<g transform="translate(0.000000,700.000000) scale(0.100000,-0.100000)"
fill="#000000" stroke="none">
<path d="M3470 6067 c-14 -11 -90 -132 -90 -143 0 -3 -15 -28 -33 -57 -18 -29
-41 -68 -50 -87 -10 -19 -26 -48 -36 -65 -22 -36 -47 -80 -91 -160 -18 -33
-36 -64 -40 -70 -9 -10 -75 -133 -94 -172 -6 -13 -14 -23 -18 -23 -5 0 -8 -9
-8 -20 0 -11 -4 -20 -10 -20 -5 0 -10 -6 -10 -14 0 -8 -6 -21 -13 -28 -7 -7
-20 -28 -28 -45 -7 -18 -17 -33 -21 -33 -5 0 -8 -9 -8 -20 0 -11 -7 -23 -15
-26 -12 -5 -15 -25 -15 -89 0 -80 1 -85 41 -144 22 -33 44 -61 49 -61 4 0 20
-20 34 -44 25 -42 44 -68 146 -191 27 -33 55 -68 63 -78 19 -27 41 -12 73 51
16 31 32 59 37 60 4 2 7 12 7 22 0 10 3 20 8 22 4 2 22 32 40 68 68 135 96
180 112 180 8 0 90 -124 90 -135 0 -2 20 -36 45 -75 25 -39 45 -72 45 -75 0
-3 20 -36 45 -75 25 -39 45 -73 45 -76 0 -3 11 -20 25 -38 14 -18 25 -36 25
-39 0 -4 16 -31 35 -61 19 -30 35 -60 35 -66 0 -5 5 -10 10 -10 6 0 10 -4 10
-9 0 -4 25 -48 55 -97 70 -115 85 -143 85 -164 0 -25 -27 -86 -66 -151 -19
-31 -41 -72 -49 -91 l-14 -35 89 -101 c103 -116 148 -149 180 -132 11 6 21 12
22 13 1 1 4 236 7 522 6 501 7 522 27 565 23 49 65 96 95 105 10 4 19 10 19
15 0 11 -56 116 -115 215 -26 44 -59 100 -73 125 -14 25 -33 57 -43 72 -11 14
-19 29 -19 33 0 3 -16 31 -35 61 -19 30 -35 57 -35 60 0 3 -16 30 -35 60 -19
30 -35 56 -35 59 0 3 -16 29 -35 59 -19 30 -35 57 -35 60 0 3 -16 30 -35 60
-19 30 -35 57 -35 60 0 3 -16 30 -35 60 -19 30 -35 57 -35 60 0 3 -16 30 -35
60 -19 30 -35 57 -35 60 0 3 -16 30 -35 60 -19 30 -35 58 -35 61 0 12 -55 91
-74 107 -24 20 -55 22 -76 5z"/>
<path d="M2766 4700 c-4 -8 -5 -519 -4 -1135 l3 -1120 148 -3 c112 -2 149 0
152 10 3 7 6 338 7 735 2 491 6 725 14 733 7 7 37 -17 100 -82 123 -128 499
-521 620 -648 54 -57 158 -165 230 -240 72 -74 182 -189 245 -255 202 -212
353 -365 360 -365 9 0 7 2235 -1 2243 -3 3 -73 8 -157 11 -137 5 -152 4 -158
-12 -3 -9 -5 -341 -4 -737 1 -459 -2 -720 -8 -722 -8 -3 -367 361 -563 571
-36 39 -123 131 -195 205 -237 247 -300 312 -350 365 -104 108 -364 383 -398
421 -27 30 -37 36 -41 25z"/>
<path d="M1640 4624 c-107 -19 -150 -28 -180 -37 -196 -58 -313 -127 -453
-265 -125 -122 -250 -312 -289 -437 -53 -172 -76 -347 -59 -460 6 -41 11 -90
11 -107 0 -54 48 -198 103 -307 134 -267 386 -475 682 -561 97 -29 129 -33
268 -38 127 -4 175 -1 245 13 114 23 220 58 311 103 l74 36 -7 120 c-3 65 -6
148 -6 183 0 34 -3 63 -8 63 -4 0 -31 -18 -61 -40 -190 -143 -383 -201 -599
-179 -52 6 -103 14 -113 20 -10 5 -28 9 -40 9 -25 0 -143 58 -206 101 -55 38
-153 136 -190 190 -42 62 -93 162 -105 207 -51 196 -51 338 0 535 27 103 134
266 232 352 25 22 51 46 58 52 21 20 141 85 186 101 97 34 155 43 266 43 109
0 137 -4 264 -41 54 -16 151 -68 236 -126 51 -35 73 -45 81 -37 8 8 9 63 4
185 l-7 173 -77 37 c-78 38 -189 77 -276 97 -51 13 -300 23 -345 15z"/>
<path d="M5165 4568 c-3 -13 -4 -495 -3 -1073 l3 -1050 590 0 590 0 3 115 c2
63 0 130 -3 148 l-6 32 -424 0 c-233 0 -426 3 -428 8 -2 4 -2 166 1 360 l5
352 398 0 c218 0 404 3 413 6 14 5 16 28 16 149 l0 142 -92 8 c-51 4 -236 5
-411 4 -275 -3 -320 -2 -326 11 -5 8 -5 125 -2 260 l6 245 425 5 425 5 3 130
c1 72 -2 137 -8 145 -8 13 -87 15 -589 18 l-580 3 -6 -23z"/>
<path d="M2465 4287 c-18 -29 -45 -114 -37 -121 10 -11 42 -6 82 11 36 16 40
21 40 53 0 69 -53 105 -85 57z"/>
<path d="M3565 4188 c-22 -6 -57 -17 -77 -25 l-37 -16 141 -151 c78 -83 145
-153 150 -154 11 -5 68 58 68 75 0 11 -30 66 -112 203 -49 82 -58 87 -133 68z"/>
<path d="M2442 4098 c6 -18 22 -20 43 -3 19 14 18 14 -13 15 -22 0 -32 -4 -30
-12z"/>
<path d="M2515 3958 c-196 -48 -286 -89 -362 -165 -29 -28 -53 -59 -53 -67 0
-9 -4 -16 -9 -16 -5 0 -11 -8 -14 -17 -6 -19 -48 -93 -91 -161 -14 -23 -26
-44 -26 -47 0 -2 -16 -29 -35 -59 -19 -30 -35 -58 -35 -61 0 -9 -54 -90 -62
-93 -5 -2 -8 -10 -8 -18 0 -15 -50 -97 -62 -102 -5 -2 -8 -12 -8 -23 0 -10 -3
-19 -8 -19 -4 0 -15 -18 -25 -40 -9 -22 -21 -40 -27 -40 -5 0 -10 -9 -10 -20
0 -11 -4 -20 -10 -20 -5 0 -10 -8 -10 -18 0 -10 -6 -24 -12 -30 -10 -10 -10
-15 2 -22 51 -33 222 -44 309 -20 25 6 90 32 145 57 116 52 180 62 246 39 51
-18 60 -19 60 -8 0 4 29 52 64 105 65 99 87 136 138 239 l28 57 -2 288 -3 288
-40 1 c-22 1 -58 -2 -80 -8z"/>
<path d="M4852 3738 c-7 -7 -12 -16 -12 -21 0 -4 -11 -23 -24 -40 -13 -18 -38
-62 -55 -98 l-31 -67 0 -366 c0 -420 -6 -386 102 -548 32 -47 58 -91 58 -97 0
-6 3 -11 8 -11 10 0 92 -144 92 -162 0 -11 -37 -10 -74 1 -101 31 -156 42
-191 39 -34 -3 -41 -7 -43 -28 -6 -42 -20 -50 -89 -50 -77 0 -115 17 -195 89
-31 28 -63 51 -72 51 -8 0 -18 5 -21 10 -3 6 -21 10 -38 10 -18 0 -54 7 -81
15 -27 8 -64 15 -82 15 -18 0 -36 5 -39 10 -3 6 -30 10 -60 10 -30 0 -57 5
-60 10 -3 6 -17 10 -31 10 -33 0 -64 17 -64 35 0 8 -4 15 -10 15 -5 0 -10 5
-10 11 0 6 -11 25 -25 43 -14 18 -25 38 -25 44 0 7 -4 12 -10 12 -5 0 -10 5
-10 11 0 6 -6 17 -12 24 -30 33 -38 45 -38 55 0 5 -4 10 -10 10 -5 0 -10 7
-10 15 0 9 -11 26 -25 39 -14 13 -25 31 -25 40 0 9 -4 16 -10 16 -5 0 -10 6
-10 14 0 8 -7 16 -15 20 -8 3 -15 12 -15 21 0 8 -4 15 -10 15 -7 0 -10 -158
-10 -455 0 -444 0 -455 19 -455 11 0 23 -4 26 -10 3 -5 16 -10 28 -10 12 0 40
-7 62 -15 22 -8 55 -14 73 -15 17 0 32 -4 32 -10 0 -5 22 -10 49 -10 28 0 53
-4 56 -10 3 -5 22 -10 41 -10 19 0 51 -7 71 -15 19 -8 52 -15 72 -15 20 0 41
-4 46 -9 6 -5 30 -11 55 -14 25 -3 74 -12 110 -21 36 -10 88 -21 115 -26 84
-15 147 -28 220 -45 76 -18 132 -29 210 -43 72 -13 155 -32 191 -43 17 -5 41
-9 54 -9 13 0 37 -4 54 -9 17 -6 69 -17 116 -26 47 -9 99 -20 116 -26 17 -5
42 -9 57 -9 14 0 36 -4 49 -9 13 -5 52 -14 88 -21 114 -22 182 -36 315 -65
228 -49 270 -53 284 -27 17 31 3 65 -81 199 -32 51 -58 95 -58 98 0 2 -20 36
-45 75 -25 39 -45 72 -45 75 0 2 -26 46 -58 97 -33 51 -77 126 -98 166 -21 41
-50 85 -64 99 l-25 25 -256 -3 -255 -4 -43 28 c-31 21 -50 44 -69 85 l-27 57
-5 471 c-3 325 -8 475 -16 485 -10 12 -26 39 -81 139 -8 14 -25 43 -39 65 -13
22 -27 46 -30 53 -8 15 -17 15 -32 0z"/>
<path d="M3187 3632 c-17 -19 -24 -72 -9 -72 5 0 30 7 57 17 l48 16 -31 29
c-38 33 -44 34 -65 10z"/>
<path d="M3192 3397 c-13 -15 -18 -860 -6 -892 9 -24 54 -94 71 -113 7 -7 19
-23 28 -34 8 -12 18 -19 22 -15 11 11 3 1029 -8 1049 -12 22 -91 25 -107 5z"/>
<path d="M3998 2814 c5 -11 16 -32 23 -47 11 -25 14 -26 20 -10 8 24 3 34 -27
57 -25 18 -25 18 -16 0z"/>
<path d="M2570 2420 c-14 -4 -50 -9 -80 -10 -63 -1 -212 -29 -374 -69 -60 -14
-85 -16 -102 -9 -17 8 -40 7 -81 -1 -32 -6 -141 -14 -241 -18 -149 -5 -188 -9
-204 -23 -19 -15 -20 -18 -5 -47 9 -17 14 -33 11 -35 -2 -3 2 -11 11 -18 13
-11 15 -52 15 -271 l0 -259 34 0 c19 0 38 5 41 10 3 6 30 10 60 10 30 0 57 5
60 10 3 6 31 10 61 10 30 0 54 5 54 10 0 6 18 10 39 10 22 0 52 5 68 11 15 6
53 15 83 20 139 24 233 43 330 64 72 16 116 25 225 45 104 19 157 29 175 35
11 3 43 11 72 16 29 6 73 14 98 19 25 5 68 14 95 19 204 37 229 47 209 79 -32
51 -114 207 -145 277 -20 43 -58 78 -78 70 -9 -3 -47 -13 -85 -21 -61 -13 -76
-13 -120 0 -30 9 -64 28 -81 46 -24 25 -36 30 -74 29 -25 -1 -57 -5 -71 -9z"/>
<path d="M1705 1477 c-3 -7 -4 -134 -3 -282 l3 -270 85 0 85 0 3 90 c1 50 -1
141 -6 203 -8 118 -4 144 17 118 14 -17 72 -124 157 -293 39 -78 63 -113 78
-117 11 -3 53 -6 92 -6 85 0 82 -3 152 135 28 55 68 134 89 175 21 41 46 84
56 95 18 19 18 14 11 -175 -4 -107 -8 -202 -8 -210 -1 -20 163 -28 175 -8 11
17 11 529 1 546 -7 9 -41 12 -137 10 l-129 -3 -101 -196 c-121 -236 -121 -237
-133 -224 -5 6 -44 78 -87 160 -43 83 -91 176 -108 208 l-30 57 -129 0 c-94 0
-130 -3 -133 -13z"/>
<path d="M3060 1480 c-97 -11 -158 -34 -219 -86 -53 -44 -71 -92 -71 -187 0
-126 31 -182 125 -229 92 -46 113 -49 353 -55 l232 -6 0 46 0 45 -197 4 c-174
3 -203 5 -237 23 -65 33 -81 64 -81 153 0 96 7 120 44 160 43 44 84 52 289 52
l182 0 0 45 0 45 -177 -2 c-98 0 -207 -4 -243 -8z"/>
<path d="M3553 1483 c-10 -3 -13 -69 -13 -278 l0 -274 33 -6 c17 -4 57 -5 87
-3 l55 3 3 200 c1 110 4 206 7 214 6 16 2 20 105 -99 36 -41 67 -77 70 -80 3
-3 34 -39 70 -80 36 -41 83 -94 106 -117 l42 -43 78 0 c44 0 89 3 102 6 l22 6
0 268 c0 218 -3 270 -14 279 -9 7 -42 11 -88 9 l-73 -3 -3 -185 c-1 -102 -5
-192 -8 -200 -4 -12 -11 -8 -31 15 -14 17 -42 48 -62 70 -20 22 -85 95 -144
163 -60 67 -117 127 -127 132 -19 10 -194 13 -217 3z"/>
<path d="M4675 1480 c-82 -8 -121 -20 -180 -55 -81 -47 -115 -111 -115 -218 0
-98 16 -141 66 -185 95 -83 147 -95 417 -96 l222 -1 3 42 3 41 -198 4 c-222 4
-253 11 -294 69 -21 30 -24 44 -23 120 1 78 4 90 29 126 46 63 57 66 283 71
l202 4 0 44 0 44 -172 -2 c-95 -1 -204 -4 -243 -8z"/>
</g>
</svg>
